# xmcd
#
# Track frame offsets: 
#        150
#        24106
#        50196
#        70680
#        93482
#        114027
#        136487
#        156525
#        175530
#        200590
#        214198
#        241670
#        262687
#        285269
#        306326
#
# Disc length: 4381 seconds
#
# Revision: 1
# Processed by: cddbd v1.5.2PL0 Copyright (c) Steve Scherf et al.
# Submitted via: ExactAudioCopy v0.99pb5
#
DISCID=c6111b0f
DTITLE=Teddy Pendergrass - Believe In Love (The Very Best Of)[CD 02]
DYEAR=2005
DGENRE=Soul
TTITLE0=Close The Door
TTITLE1=Turn Off The Lights
TTITLE2=Is It Still Good To Ya
TTITLE3=Can't We Try
TTITLE4=All I Need Is You
TTITLE5=When Somebody Loves You Back
TTITLE6=The More I Get The More I Want
TTITLE7=Nine Times Out Of Ten
TTITLE8=It's You I Love
TTITLE9=I Can't Live Without Your Love
TTITLE10=Joy
TTITLE11=Two Hearts (Stephanie Mills Feat. Teddy Pendegrass)
TTITLE12=Tender
TTITLE13=How Can You Mend A Broken Heart
TTITLE14=Believe In Love
EXTD=
EXTT0=
EXTT1=
EXTT2=
EXTT3=
EXTT4=
EXTT5=
EXTT6=
EXTT7=
EXTT8=
EXTT9=
EXTT10=
EXTT11=
EXTT12=
EXTT13=
EXTT14=
PLAYORDER=
